<?xml version="1.0" encoding="UTF-8"?>
<svg xmlns="http://www.w3.org/2000/svg" viewBox="0 0 128 128" role="img" aria-label="Swacole pop logo">
  <defs>
    <linearGradient id="bg" x1="16" y1="12" x2="112" y2="116" gradientUnits="userSpaceOnUse">
      <stop offset="0" stop-color="#ff4d6d"/>
      <stop offset="1" stop-color="#ff8fab"/>
    </linearGradient>
    <linearGradient id="swap" x1="28" y1="40" x2="100" y2="88" gradientUnits="userSpaceOnUse">
      <stop offset="0" stop-color="#00f5d4"/>
      <stop offset="1" stop-color="#00bbf9"/>
    </linearGradient>
    <linearGradient id="ring" x1="36" y1="36" x2="92" y2="92" gradientUnits="userSpaceOnUse">
      <stop offset="0" stop-color="#ffe066"/>
      <stop offset="1" stop-color="#ffd166"/>
    </linearGradient>
  </defs>

  <rect width="128" height="128" rx="30" fill="url(#bg)"/>
  <circle cx="64" cy="64" r="46" fill="#ffffff" opacity="0.12"/>

  <circle cx="64" cy="64" r="27" fill="#ffffff" stroke="url(#ring)" stroke-width="6"/>
  <path d="M41 64h46" stroke="#e11d48" stroke-width="6" stroke-linecap="round"/>
  <circle cx="64" cy="64" r="5" fill="#e11d48"/>

  <path d="M28 47c8-14 23-23 40-23" fill="none" stroke="url(#swap)" stroke-width="7" stroke-linecap="round"/>
  <path d="M67 19l14 4-9 12z" fill="#00f5d4"/>
  <path d="M100 81c-8 14-23 23-40 23" fill="none" stroke="url(#swap)" stroke-width="7" stroke-linecap="round"/>
  <path d="M61 109l-14-4 9-12z" fill="#00bbf9"/>

  <circle cx="30" cy="30" r="4" fill="#ffffff" opacity="0.9"/>
  <circle cx="100" cy="32" r="3" fill="#ffe066"/>
  <circle cx="95" cy="102" r="3.5" fill="#00f5d4"/>
</svg>